<svg width="364" height="60" viewBox="0 0 364 60" fill="none" xmlns="http://www.w3.org/2000/svg">
    <path d="M7.808 47V12.76C7.808 10.2853 8.34133 8.10933 9.408 6.232C10.4747 4.312 11.9893 2.79733 13.952 1.688C15.9147 0.578665 18.2187 0.0239983 20.864 0.0239983C22.8693 0.0239983 24.5973 0.365331 26.048 1.048C27.4987 1.73066 28.8 2.66933 29.952 3.864L24.64 9.24C24.1707 8.77067 23.6587 8.408 23.104 8.152C22.5493 7.896 21.8453 7.768 20.992 7.768C19.456 7.768 18.2613 8.19466 17.408 9.048C16.5973 9.85867 16.192 11.032 16.192 12.568V47H7.808ZM0.64 23.448V16.088H25.344V23.448H0.64ZM29.3995 47V16.088H37.7835V47H29.3995ZM37.7835 29.912L34.5195 27.736C34.9035 23.9387 36.0128 20.952 37.8475 18.776C39.6822 16.5573 42.3275 15.448 45.7835 15.448C47.2768 15.448 48.6208 15.704 49.8155 16.216C51.0102 16.6853 52.0982 17.4747 53.0795 18.584L47.8315 24.6C47.3622 24.088 46.7862 23.704 46.1035 23.448C45.4635 23.192 44.7168 23.064 43.8635 23.064C42.0715 23.064 40.5995 23.64 39.4475 24.792C38.3382 25.9013 37.7835 27.608 37.7835 29.912ZM69.6775 47.64C66.5628 47.64 63.7468 46.936 61.2295 45.528C58.7548 44.0773 56.7708 42.136 55.2775 39.704C53.8268 37.2293 53.1015 34.4773 53.1015 31.448C53.1015 28.4187 53.8268 25.7093 55.2775 23.32C56.7282 20.888 58.7122 18.968 61.2295 17.56C63.7468 16.1093 66.5415 15.384 69.6135 15.384C72.7708 15.384 75.5868 16.1093 78.0615 17.56C80.5788 18.968 82.5628 20.888 84.0135 23.32C85.4642 25.7093 86.1895 28.4187 86.1895 31.448C86.1895 34.4773 85.4642 37.2293 84.0135 39.704C82.5628 42.136 80.5788 44.0773 78.0615 45.528C75.5868 46.936 72.7922 47.64 69.6775 47.64ZM69.6135 39.832C71.1922 39.832 72.5788 39.4907 73.7735 38.808C75.0108 38.0827 75.9495 37.1013 76.5895 35.864C77.2722 34.584 77.6135 33.1333 77.6135 31.512C77.6135 29.8907 77.2722 28.4613 76.5895 27.224C75.9068 25.9867 74.9682 25.0267 73.7735 24.344C72.5788 23.6187 71.1922 23.256 69.6135 23.256C68.0775 23.256 66.7122 23.6187 65.5175 24.344C64.3228 25.0267 63.3842 25.9867 62.7015 27.224C62.0188 28.4613 61.6775 29.8907 61.6775 31.512C61.6775 33.1333 62.0188 34.584 62.7015 35.864C63.3842 37.1013 64.3228 38.0827 65.5175 38.808C66.7122 39.4907 68.0775 39.832 69.6135 39.832ZM112.387 47V29.272C112.387 27.4373 111.811 25.944 110.659 24.792C109.507 23.64 108.014 23.064 106.179 23.064C104.984 23.064 103.918 23.32 102.979 23.832C102.04 24.344 101.294 25.0693 100.739 26.008C100.227 26.9467 99.971 28.0347 99.971 29.272L96.707 27.608C96.707 25.176 97.219 23.064 98.243 21.272C99.3097 19.4373 100.76 18.008 102.595 16.984C104.472 15.96 106.584 15.448 108.931 15.448C111.192 15.448 113.219 16.024 115.011 17.176C116.803 18.2853 118.211 19.7573 119.235 21.592C120.259 23.384 120.771 25.3253 120.771 27.416V47H112.387ZM91.587 47V16.088H99.971V47H91.587ZM131.694 47V3.224H140.078V47H131.694ZM124.462 23.448V16.088H147.31V23.448H124.462ZM171.417 47V11.416C171.417 9.53866 171.801 7.896 172.569 6.488C173.38 5.03733 174.489 3.90666 175.897 3.096C177.305 2.28533 178.905 1.88 180.697 1.88C182.062 1.88 183.321 2.136 184.473 2.648C185.625 3.11733 186.628 3.8 187.481 4.696L186.137 6.04C185.326 5.18666 184.452 4.58933 183.513 4.248C182.617 3.864 181.657 3.672 180.633 3.672C178.372 3.672 176.601 4.39733 175.321 5.848C174.041 7.29867 173.401 9.24 173.401 11.672V47H171.417ZM163.609 19.288V17.56H184.281V19.288H163.609ZM202.243 47.64C199.342 47.64 196.739 46.9787 194.435 45.656C192.174 44.2907 190.382 42.456 189.059 40.152C187.736 37.848 187.075 35.2453 187.075 32.344C187.075 29.4427 187.736 26.84 189.059 24.536C190.382 22.1893 192.174 20.3333 194.435 18.968C196.696 17.6027 199.256 16.92 202.115 16.92C204.376 16.92 206.403 17.3467 208.195 18.2C210.03 19.0107 211.544 20.184 212.739 21.72C213.976 23.256 214.83 25.0907 215.299 27.224V37.272C214.787 39.4053 213.912 41.2613 212.675 42.84C211.48 44.376 209.987 45.5707 208.195 46.424C206.446 47.2347 204.462 47.64 202.243 47.64ZM202.499 45.784C206.168 45.784 209.091 44.568 211.267 42.136C213.443 39.6613 214.531 36.3973 214.531 32.344C214.531 29.6133 214.019 27.2453 212.995 25.24C212.014 23.192 210.606 21.6133 208.771 20.504C206.936 19.352 204.803 18.776 202.371 18.776C199.811 18.776 197.528 19.3733 195.523 20.568C193.56 21.72 192.003 23.32 190.851 25.368C189.699 27.3733 189.123 29.6773 189.123 32.28C189.123 34.8827 189.699 37.208 190.851 39.256C192.003 41.2613 193.582 42.8613 195.587 44.056C197.635 45.208 199.939 45.784 202.499 45.784ZM214.467 47V39.128L215.043 31.832L214.467 24.728V17.56H216.451V47H214.467ZM239.931 47.64C237.072 47.64 234.491 46.9573 232.187 45.592C229.925 44.2267 228.112 42.3707 226.747 40.024C225.424 37.6773 224.763 35.0533 224.763 32.152C224.763 29.2933 225.424 26.712 226.747 24.408C228.112 22.104 229.925 20.2907 232.187 18.968C234.491 17.6027 237.072 16.92 239.931 16.92C242.064 16.92 244.048 17.3253 245.883 18.136C247.76 18.904 249.36 19.992 250.683 21.4L249.339 22.744C248.187 21.5067 246.8 20.5467 245.179 19.864C243.557 19.1387 241.808 18.776 239.931 18.776C237.456 18.776 235.216 19.3733 233.211 20.568C231.248 21.72 229.691 23.2987 228.539 25.304C227.387 27.3093 226.811 29.592 226.811 32.152C226.811 34.7547 227.387 37.08 228.539 39.128C229.691 41.176 231.248 42.7973 233.211 43.992C235.216 45.1867 237.456 45.784 239.931 45.784C241.851 45.784 243.621 45.4427 245.243 44.76C246.907 44.0347 248.336 43.032 249.531 41.752L250.875 43.096C249.509 44.5467 247.867 45.6773 245.947 46.488C244.069 47.256 242.064 47.64 239.931 47.64ZM263.042 47V5.016H265.026V47H263.042ZM255.234 19.288V17.56H272.77V19.288H255.234ZM291.868 47.64C289.009 47.64 286.428 46.9573 284.124 45.592C281.863 44.2267 280.049 42.3707 278.684 40.024C277.361 37.6773 276.7 35.0533 276.7 32.152C276.7 29.2933 277.361 26.712 278.684 24.408C280.049 22.104 281.863 20.2907 284.124 18.968C286.428 17.6027 289.009 16.92 291.868 16.92C294.684 16.92 297.223 17.6027 299.484 18.968C301.788 20.2907 303.601 22.104 304.924 24.408C306.289 26.712 306.972 29.2933 306.972 32.152C306.972 35.096 306.289 37.7413 304.924 40.088C303.601 42.392 301.788 44.2267 299.484 45.592C297.223 46.9573 294.684 47.64 291.868 47.64ZM291.868 45.784C294.343 45.784 296.561 45.1867 298.524 43.992C300.487 42.7973 302.044 41.176 303.196 39.128C304.348 37.0373 304.924 34.6907 304.924 32.088C304.924 29.5707 304.348 27.3093 303.196 25.304C302.044 23.2987 300.487 21.72 298.524 20.568C296.561 19.3733 294.343 18.776 291.868 18.776C289.393 18.776 287.153 19.3733 285.148 20.568C283.185 21.72 281.628 23.2987 280.476 25.304C279.324 27.3093 278.748 29.592 278.748 32.152C278.748 34.7547 279.324 37.08 280.476 39.128C281.628 41.176 283.185 42.7973 285.148 43.992C287.153 45.1867 289.393 45.784 291.868 45.784ZM315.308 47V17.56H317.292V47H315.308ZM317.292 29.016L315.948 28.632C315.948 24.8773 316.929 21.9973 318.892 19.992C320.897 17.944 323.393 16.92 326.38 16.92C327.83 16.92 329.174 17.176 330.412 17.688C331.692 18.2 332.865 19.0107 333.932 20.12L332.588 21.592C331.692 20.6107 330.71 19.9067 329.644 19.48C328.62 19.0533 327.425 18.84 326.06 18.84C323.457 18.84 321.345 19.736 319.724 21.528C318.102 23.2773 317.292 25.7733 317.292 29.016ZM349.235 47L335.923 17.56H338.099L350.387 45.208H348.915L361.779 17.56H363.955L350.003 47H349.235ZM341.939 59.544L348.979 45.08L350.003 47L344.051 59.544H341.939Z"
          fill="black"/>
</svg>
